<svg xmlns="http://www.w3.org/2000/svg" xmlns:xlink="http://www.w3.org/1999/xlink" viewBox="0 0 246.67 185.98"><defs><style>.cls-1{fill:none;}.cls-2{fill:url(#linear-gradient);}.cls-3{fill:url(#linear-gradient-2);}.cls-4{fill:url(#linear-gradient-3);}.cls-5{fill:url(#linear-gradient-4);}.cls-6{fill:url(#New_Pattern_Swatch_2);}</style><linearGradient id="linear-gradient" x1="-8311.3" y1="-26977.58" x2="-8016.87" y2="-26977.58" gradientTransform="matrix(1, 0, 0, -1, 8311.3, -26880.01)" gradientUnits="userSpaceOnUse"><stop offset="0" stop-color="#151fa6"/><stop offset="1"/></linearGradient><linearGradient id="linear-gradient-2" x1="25885.85" y1="-26977.58" x2="26180.27" y2="-26977.58" gradientTransform="translate(26474.7 -26880.01) rotate(180)" xlink:href="#linear-gradient"/><linearGradient id="linear-gradient-3" x1="-8311.3" y1="-27172.74" x2="-8016.87" y2="-27172.74" xlink:href="#linear-gradient"/><linearGradient id="linear-gradient-4" x1="25885.85" y1="-27172.74" x2="26180.27" y2="-27172.74" gradientTransform="translate(26474.7 -26880.01) rotate(180)" xlink:href="#linear-gradient"/><pattern id="New_Pattern_Swatch_2" data-name="New Pattern Swatch 2" width="588.85" height="390.31" patternUnits="userSpaceOnUse" viewBox="0 0 588.85 390.31"><rect class="cls-1" width="588.85" height="390.31"/><rect class="cls-2" width="294.43" height="195.16"/><polygon class="cls-3" points="294.43 195.16 588.85 195.16 588.85 0 294.43 0 294.43 195.16"/><rect class="cls-4" y="195.16" width="294.43" height="195.16"/><polygon class="cls-5" points="294.43 390.31 588.85 390.31 588.85 195.16 294.43 195.16 294.43 390.31"/></pattern></defs><g id="Layer_2" data-name="Layer 2"><g id="Layer_1-2" data-name="Layer 1"><path class="cls-6" d="M10.59,117.2a12.37,12.37,0,0,1,4.15-3.07A12.73,12.73,0,0,1,20,113.05a11.7,11.7,0,0,1,5.3,1.23,14.17,14.17,0,0,1,4.53,3.7l4.41-4.75A16.72,16.72,0,0,0,28,108a19,19,0,0,0-8.25-1.77,19,19,0,0,0-7.83,1.59,18.64,18.64,0,0,0-6.25,4.55,21,21,0,0,0-4.16,6.86,26.27,26.27,0,0,0,0,17.33,21.52,21.52,0,0,0,4.13,6.86,18.34,18.34,0,0,0,6.23,4.54,19,19,0,0,0,7.83,1.59,18.85,18.85,0,0,0,8.3-1.8,17,17,0,0,0,6.31-5.3l-4.41-4.75a13.88,13.88,0,0,1-4.53,3.76,11.7,11.7,0,0,1-5.3,1.23,12.73,12.73,0,0,1-5.29-1.08,12.37,12.37,0,0,1-4.15-3.07,14.76,14.76,0,0,1-2.76-4.69,18.26,18.26,0,0,1,0-11.92A14.76,14.76,0,0,1,10.59,117.2Z"/><path class="cls-6" d="M49.93,116.36a20.55,20.55,0,0,0-6.46,1,15.76,15.76,0,0,0-5.42,3l2.58,5.47a11.68,11.68,0,0,1,3.89-2.34,13,13,0,0,1,4.57-.84,7.1,7.1,0,0,1,5.34,1.83,7.15,7.15,0,0,1,1.76,5.15v.48H48.88a15.65,15.65,0,0,0-6.83,1.26,8,8,0,0,0-3.71,3.43,10.41,10.41,0,0,0-1.13,4.87,9.62,9.62,0,0,0,1.29,5,9,9,0,0,0,3.65,3.43,11.82,11.82,0,0,0,5.52,1.23,11.28,11.28,0,0,0,6.21-1.56A8,8,0,0,0,56.5,145v3.93h6.21V130.08q0-7-3.32-10.35T49.93,116.36Zm6.26,22.5a7.24,7.24,0,0,1-2.81,3.73A7.67,7.67,0,0,1,49,143.86a5.86,5.86,0,0,1-3.94-1.21,4,4,0,0,1-1.42-3.19,4.31,4.31,0,0,1,1.18-3.1q1.19-1.23,4.5-1.23h6.83Z"/><path class="cls-6" d="M74.48,146.59a9.21,9.21,0,0,0,7.15,2.74,11.1,11.1,0,0,0,3.41-.54,7.78,7.78,0,0,0,2.89-1.62L86,141.81a5,5,0,0,1-3.57,1.32,3.62,3.62,0,0,1-2.94-1.26,5.34,5.34,0,0,1-1.06-3.55V122.8H86v-6H78.47v-7.1H72v7.1H67.33v6H72v15.76Q72,143.86,74.48,146.59Z"/><path class="cls-6" d="M110.06,142.29a12.69,12.69,0,0,1-4.67.72,17.64,17.64,0,0,1-6.68-1.32,18.68,18.68,0,0,1-5.47-3.31l-2.36,6.08a18,18,0,0,0,6.28,3.64,24.09,24.09,0,0,0,8.23,1.41,18.09,18.09,0,0,0,8.35-1.71,11.53,11.53,0,0,0,4.92-4.58,12.48,12.48,0,0,0,1.6-6.22,11.17,11.17,0,0,0-1.18-5.45,9.67,9.67,0,0,0-3.13-3.43,19.67,19.67,0,0,0-4.26-2.11q-2.31-.81-4.68-1.41c-1.57-.4-3-.82-4.28-1.26a8.07,8.07,0,0,1-3.1-1.84,4.15,4.15,0,0,1-1.18-3.1,5.31,5.31,0,0,1,.81-2.86,5.59,5.59,0,0,1,2.6-2.07,11.53,11.53,0,0,1,4.58-.78,17.08,17.08,0,0,1,5,.81,18.84,18.84,0,0,1,5.1,2.5l2.16-6.08a17.8,17.8,0,0,0-5.68-2.77,23.11,23.11,0,0,0-6.57-1,18,18,0,0,0-8.33,1.71,11.57,11.57,0,0,0-4.89,4.58,12.59,12.59,0,0,0-1.6,6.28,11.46,11.46,0,0,0,1.18,5.54A9.6,9.6,0,0,0,96,127.76a20.14,20.14,0,0,0,4.28,2.14,46.24,46.24,0,0,0,4.68,1.41,42.09,42.09,0,0,1,4.26,1.26,8.76,8.76,0,0,1,3.12,1.87,4.1,4.1,0,0,1,1.21,3.1,4.89,4.89,0,0,1-.84,2.8A5.61,5.61,0,0,1,110.06,142.29Z"/><path class="cls-6" d="M134.87,124a8,8,0,0,1,4.37-1.23,7.35,7.35,0,0,1,3.91,1.11,9,9,0,0,1,3.08,3.34l5-3.37a11.84,11.84,0,0,0-4.73-5.6,13.56,13.56,0,0,0-7.2-1.92,14.61,14.61,0,0,0-7.86,2.13A14.94,14.94,0,0,0,126,124.3a19.72,19.72,0,0,0,0,17.06,14.89,14.89,0,0,0,5.39,5.84,14.61,14.61,0,0,0,7.86,2.13,13.4,13.4,0,0,0,7.2-2,12,12,0,0,0,4.73-5.57l-5-3.37a8.92,8.92,0,0,1-3.08,3.4,7.35,7.35,0,0,1-3.91,1.11,8,8,0,0,1-4.37-1.23,8.37,8.37,0,0,1-3.05-3.52,12.27,12.27,0,0,1-1.1-5.36,12.06,12.06,0,0,1,1.1-5.32A8.41,8.41,0,0,1,134.87,124Z"/><path class="cls-6" d="M163.26,121.45v-4.67H157v32.13h6.52V133.39c0-3.37.73-5.88,2.21-7.53a7.64,7.64,0,0,1,6-2.46l.68,0c.25,0,.49,0,.74.09v-7.16a12.35,12.35,0,0,0-6.68,1.71A9.35,9.35,0,0,0,163.26,121.45Z"/><rect class="cls-6" x="178.55" y="116.78" width="6.52" height="32.13"/><path class="cls-6" d="M181.81,102.46a3.87,3.87,0,0,0-3,1.32,4.55,4.55,0,0,0-1.19,3.13,4.7,4.7,0,0,0,1.19,3.25,3.87,3.87,0,0,0,3,1.32,3.82,3.82,0,0,0,3.05-1.35,4.88,4.88,0,0,0,1.15-3.28,4.37,4.37,0,0,0-1.18-3.16A4,4,0,0,0,181.81,102.46Z"/><path class="cls-6" d="M221.68,124.18a14.33,14.33,0,0,0-5.07-5.78,13.34,13.34,0,0,0-7.31-2,11.76,11.76,0,0,0-6.36,1.77,10.44,10.44,0,0,0-2.89,2.74v-4.09h-6.26v43.8h6.52V145a10.53,10.53,0,0,0,2.73,2.57,11.45,11.45,0,0,0,6.26,1.77,13.34,13.34,0,0,0,7.31-2,14.37,14.37,0,0,0,5.07-5.75,21.18,21.18,0,0,0,0-17.36Zm-5.92,14a8.63,8.63,0,0,1-3,3.55,7.76,7.76,0,0,1-8.48,0,8.62,8.62,0,0,1-3-3.55,13.37,13.37,0,0,1,0-10.62,8.44,8.44,0,0,1,3-3.49,7.92,7.92,0,0,1,8.48,0,8.45,8.45,0,0,1,3,3.49,13.26,13.26,0,0,1,0,10.62Z"/><path class="cls-6" d="M244.78,141.81a5.06,5.06,0,0,1-3.58,1.32,3.62,3.62,0,0,1-2.94-1.26,5.39,5.39,0,0,1-1-3.55V122.8h7.57v-6h-7.57v-7.1h-6.52v7.1h-4.62v6h4.62v15.76q0,5.3,2.52,8a9.24,9.24,0,0,0,7.15,2.74,11.11,11.11,0,0,0,3.42-.54,7.94,7.94,0,0,0,2.89-1.62Z"/><path class="cls-6" d="M84.87,175.35a9.12,9.12,0,0,0-2.07-1c-.75-.27-1.51-.51-2.28-.71s-1.46-.4-2.09-.62a4.09,4.09,0,0,1-1.51-.91,2.11,2.11,0,0,1-.57-1.54,2.68,2.68,0,0,1,.39-1.42,2.77,2.77,0,0,1,1.27-1,5.47,5.47,0,0,1,2.23-.39,8.2,8.2,0,0,1,2.46.4,9.14,9.14,0,0,1,2.48,1.24l1-3a8.86,8.86,0,0,0-2.77-1.37,10.94,10.94,0,0,0-3.2-.48,8.65,8.65,0,0,0-4.05.85,5.69,5.69,0,0,0-2.38,2.27,6.4,6.4,0,0,0-.78,3.13,5.87,5.87,0,0,0,.57,2.75,4.76,4.76,0,0,0,1.52,1.71,9.33,9.33,0,0,0,2.09,1.06,22.14,22.14,0,0,0,2.28.71c.76.19,1.45.4,2.07.62a4.21,4.21,0,0,1,1.53.93,2.07,2.07,0,0,1,.58,1.54,2.46,2.46,0,0,1-.4,1.39,2.79,2.79,0,0,1-1.29,1,6,6,0,0,1-2.27.36,8.36,8.36,0,0,1-3.25-.66,9.22,9.22,0,0,1-2.67-1.64l-1.15,3a8.7,8.7,0,0,0,3.06,1.8,11.48,11.48,0,0,0,4,.71,8.64,8.64,0,0,0,4.07-.86,5.59,5.59,0,0,0,2.39-2.27,6.28,6.28,0,0,0,.78-3.09,5.54,5.54,0,0,0-.58-2.7A4.75,4.75,0,0,0,84.87,175.35Z"/><polygon class="cls-6" points="87.71 168.05 93.65 168.05 93.65 185.68 96.98 185.68 96.98 168.05 102.92 168.05 102.92 164.76 87.71 164.76 87.71 168.05"/><path class="cls-6" d="M117.3,176.41a7.51,7.51,0,0,1-1.17,4.69,4.57,4.57,0,0,1-6.72,0c-.8-1-1.19-2.54-1.19-4.69V164.76h-3.33v11.77c0,3.07.69,5.41,2.09,7a8.05,8.05,0,0,0,11.51,0q2.08-2.43,2.09-7V164.76H117.3Z"/><path class="cls-6" d="M138.2,166.06a9.8,9.8,0,0,0-5.08-1.3h-7.86v20.92h7.86a9.9,9.9,0,0,0,5.08-1.3,9,9,0,0,0,3.45-3.66,12.91,12.91,0,0,0,0-11A9,9,0,0,0,138.2,166.06Zm.52,12.92a6.17,6.17,0,0,1-2.31,2.51,6.54,6.54,0,0,1-3.49.9h-4.33V168.05h4.33a6.63,6.63,0,0,1,3.49.89,6.35,6.35,0,0,1,2.31,2.48,9,9,0,0,1,0,7.56Z"/><rect class="cls-6" x="146.41" y="164.76" width="3.33" height="20.92"/><path class="cls-6" d="M169.84,167.49a9,9,0,0,0-3.06-2.24,9.35,9.35,0,0,0-3.84-.79,9.14,9.14,0,0,0-3.86.81,9.35,9.35,0,0,0-3.07,2.25,10.31,10.31,0,0,0-2,3.41,13.05,13.05,0,0,0,0,8.55,10.46,10.46,0,0,0,2,3.42,9.31,9.31,0,0,0,3.08,2.27,9.59,9.59,0,0,0,7.69,0,8.81,8.81,0,0,0,3.06-2.25,10.8,10.8,0,0,0,2-3.42,13.17,13.17,0,0,0,0-8.59A10.53,10.53,0,0,0,169.84,167.49Zm-1.1,10.69a7.1,7.1,0,0,1-1.32,2.33,6,6,0,0,1-2,1.52,5.75,5.75,0,0,1-2.5.54,5.94,5.94,0,0,1-2.52-.54,5.88,5.88,0,0,1-2-1.54,7.75,7.75,0,0,1-1.33-2.34,8.7,8.7,0,0,1-.48-2.93,8.55,8.55,0,0,1,.48-2.94,7.88,7.88,0,0,1,1.33-2.34,5.85,5.85,0,0,1,2-1.53,5.94,5.94,0,0,1,2.52-.54,5.75,5.75,0,0,1,2.5.54,6,6,0,0,1,2,1.52,6.81,6.81,0,0,1,1.31,2.33,9,9,0,0,1,.47,3A8.79,8.79,0,0,1,168.74,178.18Z"/><polygon class="cls-6" points="89.61 71.8 90.19 76.33 102.21 78.76 89.61 71.8"/><polygon class="cls-6" points="89.88 85.94 111.82 84.11 89.61 82.61 89.88 85.94"/><path class="cls-6" d="M168.43,62.81c-1.27-2-7.58-12-7.58-18.31,0-7,3.87-11.49,3.87-20.18s-3.05-18.21-3.05-18.21c-20,21.83-22.59,23.16-22.59,23.16s-3.52-3.43-10.12-3.43-10.11,3.43-10.11,3.43-2.54-1.33-22.59-23.16c0,0-3.05,9.52-3.05,18.21s3.87,13.2,3.87,20.18c0,6.28-6.31,16.35-7.58,18.31a.61.61,0,0,0,.09.78c2.21,2.08,15.67,10.51,27.29,17.14,4.47,2.55,11.07,8.68,12.08,8.68s7.62-6.13,12.09-8.68c11.62-6.63,25.08-15.06,27.29-17.14A.61.61,0,0,0,168.43,62.81ZM123.35,73.72c-1.66-2.2-3.31-5.21-5.77-6.26-1.69-.73-6.66-.82-9.74-3.11-5.19-3.85-6.16-8.29-6.16-8.29.82,0,3.59-2.28,5.73-2.73,3.46-.71,7.47.07,9.45,1.5,3.66,2.64,6.08,8.33,6.38,11.91A46.24,46.24,0,0,1,123.35,73.72Zm26.74-9.37c-3.08,2.29-8.05,2.38-9.74,3.11-2.46,1.05-4.11,4.06-5.77,6.26a46.93,46.93,0,0,1,.1-7c.31-3.58,2.73-9.27,6.39-11.91,2-1.43,6-2.21,9.45-1.5,2.14.45,4.91,2.71,5.73,2.73C156.25,56.06,155.28,60.5,150.09,64.35Z"/><polygon class="cls-6" points="155.55 78.76 167.58 76.33 168.16 71.8 155.55 78.76"/><polygon class="cls-6" points="167.89 85.94 168.16 82.61 145.94 84.11 167.89 85.94"/><rect class="cls-6" x="63.91" width="4.25" height="0.71"/><rect class="cls-6" x="63.91" y="36.94" width="4.25" height="1.39"/><rect class="cls-6" x="63.91" y="41.12" width="4.25" height="1.39"/><rect class="cls-6" x="63.91" y="32.76" width="4.25" height="1.39"/><rect class="cls-6" x="63.91" y="24.4" width="4.25" height="1.39"/><rect class="cls-6" x="63.91" y="28.58" width="4.25" height="1.39"/><rect class="cls-6" x="63.91" y="57.84" width="4.25" height="1.39"/><rect class="cls-6" x="63.91" y="20.22" width="4.25" height="1.39"/><rect class="cls-6" x="63.91" y="62.02" width="4.25" height="1.39"/><rect class="cls-6" x="63.91" y="45.3" width="4.25" height="1.39"/><rect class="cls-6" x="63.91" y="53.66" width="4.25" height="1.39"/><rect class="cls-6" x="63.91" y="49.48" width="4.25" height="1.39"/><rect class="cls-6" x="63.91" y="16.04" width="4.25" height="1.39"/><rect class="cls-6" x="63.91" y="70.38" width="4.25" height="1.39"/><rect class="cls-6" x="63.91" y="74.56" width="4.25" height="1.39"/><rect class="cls-6" x="63.91" y="78.74" width="4.25" height="1.39"/><rect class="cls-6" x="63.91" y="66.2" width="4.25" height="1.39"/><rect class="cls-6" x="63.91" y="3.5" width="4.25" height="1.39"/><rect class="cls-6" x="63.91" y="7.68" width="4.25" height="1.39"/><rect class="cls-6" x="63.91" y="11.86" width="4.25" height="1.39"/><rect class="cls-6" x="63.91" y="82.92" width="4.25" height="0.71"/><rect class="cls-6" x="40.98" y="80.91" width="0.71" height="3.4"/><rect class="cls-6" x="44.78" y="80.91" width="1.55" height="3.4"/><rect class="cls-6" x="49.43" y="80.91" width="1.55" height="3.4"/><rect class="cls-6" x="54.08" y="80.91" width="0.71" height="3.4"/><rect class="cls-6" x="70.03" y="80.91" width="0.71" height="3.4"/><rect class="cls-6" x="72.94" y="80.91" width="1.1" height="3.4"/><rect class="cls-6" x="76.23" y="80.91" width="0.71" height="3.4"/><rect class="cls-6" x="166.69" y="45.2" width="0.71" height="3.4"/><rect class="cls-6" x="182.79" y="45.2" width="1.4" height="3.4"/><rect class="cls-6" x="191.18" y="45.2" width="1.4" height="3.4"/><rect class="cls-6" x="186.98" y="45.2" width="1.4" height="3.4"/><rect class="cls-6" x="174.39" y="45.2" width="1.4" height="3.4"/><rect class="cls-6" x="195.38" y="45.2" width="1.4" height="3.4"/><rect class="cls-6" x="199.58" y="45.2" width="1.4" height="3.4"/><rect class="cls-6" x="170.19" y="45.2" width="1.4" height="3.4"/><rect class="cls-6" x="178.59" y="45.2" width="1.4" height="3.4"/><rect class="cls-6" x="203.78" y="45.2" width="0.71" height="3.4"/><rect class="cls-6" x="176.32" y="81.93" width="0.71" height="3.4"/><rect class="cls-6" x="179.63" y="81.93" width="1.3" height="3.4"/><rect class="cls-6" x="183.54" y="81.93" width="0.71" height="3.4"/></g></g></svg>