<svg width="17" height="17" viewBox="0 0 17 17" fill="none" xmlns="http://www.w3.org/2000/svg">
<path d="M8.34888 8.50003C7.24888 8.50003 6.30721 8.10836 5.52388 7.32503C4.74054 6.5417 4.34888 5.60003 4.34888 4.50003C4.34888 3.40003 4.74054 2.45836 5.52388 1.67503C6.30721 0.891697 7.24888 0.500031 8.34888 0.500031C9.44888 0.500031 10.3905 0.891697 11.1739 1.67503C11.9572 2.45836 12.3489 3.40003 12.3489 4.50003C12.3489 5.60003 11.9572 6.5417 11.1739 7.32503C10.3905 8.10836 9.44888 8.50003 8.34888 8.50003ZM0.348877 16.5V13.7C0.348877 13.1334 0.49471 12.6125 0.786377 12.1375C1.07804 11.6625 1.46554 11.3 1.94888 11.05C2.98221 10.5334 4.03221 10.1459 5.09888 9.88753C6.16554 9.6292 7.24888 9.50003 8.34888 9.50003C9.44888 9.50003 10.5322 9.6292 11.5989 9.88753C12.6655 10.1459 13.7155 10.5334 14.7489 11.05C15.2322 11.3 15.6197 11.6625 15.9114 12.1375C16.203 12.6125 16.3489 13.1334 16.3489 13.7V16.5H0.348877ZM2.34888 14.5H14.3489V13.7C14.3489 13.5167 14.303 13.35 14.2114 13.2C14.1197 13.05 13.9989 12.9334 13.8489 12.85C12.9489 12.4 12.0405 12.0625 11.1239 11.8375C10.2072 11.6125 9.28221 11.5 8.34888 11.5C7.41554 11.5 6.49054 11.6125 5.57388 11.8375C4.65721 12.0625 3.74888 12.4 2.84888 12.85C2.69888 12.9334 2.57804 13.05 2.48638 13.2C2.39471 13.35 2.34888 13.5167 2.34888 13.7V14.5ZM8.34888 6.50003C8.89888 6.50003 9.36971 6.3042 9.76138 5.91253C10.153 5.52086 10.3489 5.05003 10.3489 4.50003C10.3489 3.95003 10.153 3.4792 9.76138 3.08753C9.36971 2.69586 8.89888 2.50003 8.34888 2.50003C7.79888 2.50003 7.32804 2.69586 6.93638 3.08753C6.54471 3.4792 6.34888 3.95003 6.34888 4.50003C6.34888 5.05003 6.54471 5.52086 6.93638 5.91253C7.32804 6.3042 7.79888 6.50003 8.34888 6.50003Z" fill="#232B59"/>
</svg>
