<svg width="733" height="223" viewBox="0 0 733 223" fill="none" xmlns="http://www.w3.org/2000/svg">
<path d="M32.275 16V14.9167H33.9V10.1833L32.275 11V9.71667L35.1833 8.25833V14.9167H36.475V16H32.275ZM40.3711 16.15C39.8989 16.15 39.4905 16.0389 39.1461 15.8167C38.8072 15.5889 38.5239 15.2861 38.2961 14.9083C38.0739 14.5306 37.9072 14.1111 37.7961 13.65C37.6905 13.1889 37.6378 12.7222 37.6378 12.25C37.6378 11.7778 37.6905 11.3111 37.7961 10.85C37.9072 10.3889 38.0739 9.96944 38.2961 9.59167C38.5239 9.21389 38.8072 8.91389 39.1461 8.69167C39.4905 8.46389 39.8989 8.35 40.3711 8.35C40.8433 8.35 41.2489 8.46389 41.5878 8.69167C41.9322 8.91389 42.2155 9.21389 42.4378 9.59167C42.6655 9.96944 42.8322 10.3889 42.9378 10.85C43.0489 11.3111 43.1044 11.7778 43.1044 12.25C43.1044 12.7222 43.0489 13.1889 42.9378 13.65C42.8322 14.1111 42.6655 14.5306 42.4378 14.9083C42.2155 15.2861 41.9322 15.5889 41.5878 15.8167C41.2489 16.0389 40.8433 16.15 40.3711 16.15ZM40.3711 14.925C40.6211 14.925 40.8322 14.8444 41.0044 14.6833C41.1822 14.5222 41.3239 14.3111 41.4294 14.05C41.5405 13.7833 41.6211 13.4944 41.6711 13.1833C41.7211 12.8667 41.7461 12.5556 41.7461 12.25C41.7461 11.9389 41.7211 11.6278 41.6711 11.3167C41.6211 11.0056 41.5405 10.7194 41.4294 10.4583C41.3239 10.1917 41.1822 9.97778 41.0044 9.81667C40.8322 9.65556 40.6211 9.575 40.3711 9.575C40.1211 9.575 39.9072 9.65556 39.7294 9.81667C39.5572 9.97778 39.4155 10.1917 39.3044 10.4583C39.1989 10.7194 39.1211 11.0056 39.0711 11.3167C39.0211 11.6278 38.9961 11.9389 38.9961 12.25C38.9961 12.5556 39.0211 12.8667 39.0711 13.1833C39.1211 13.4944 39.1989 13.7833 39.3044 14.05C39.4155 14.3111 39.5572 14.5222 39.7294 14.6833C39.9072 14.8444 40.1211 14.925 40.3711 14.925ZM46.6172 16.15C46.145 16.15 45.7366 16.0389 45.3922 15.8167C45.0533 15.5889 44.77 15.2861 44.5422 14.9083C44.32 14.5306 44.1533 14.1111 44.0422 13.65C43.9366 13.1889 43.8839 12.7222 43.8839 12.25C43.8839 11.7778 43.9366 11.3111 44.0422 10.85C44.1533 10.3889 44.32 9.96944 44.5422 9.59167C44.77 9.21389 45.0533 8.91389 45.3922 8.69167C45.7366 8.46389 46.145 8.35 46.6172 8.35C47.0894 8.35 47.495 8.46389 47.8339 8.69167C48.1783 8.91389 48.4616 9.21389 48.6839 9.59167C48.9116 9.96944 49.0783 10.3889 49.1839 10.85C49.295 11.3111 49.3505 11.7778 49.3505 12.25C49.3505 12.7222 49.295 13.1889 49.1839 13.65C49.0783 14.1111 48.9116 14.5306 48.6839 14.9083C48.4616 15.2861 48.1783 15.5889 47.8339 15.8167C47.495 16.0389 47.0894 16.15 46.6172 16.15ZM46.6172 14.925C46.8672 14.925 47.0783 14.8444 47.2505 14.6833C47.4283 14.5222 47.57 14.3111 47.6755 14.05C47.7866 13.7833 47.8672 13.4944 47.9172 13.1833C47.9672 12.8667 47.9922 12.5556 47.9922 12.25C47.9922 11.9389 47.9672 11.6278 47.9172 11.3167C47.8672 11.0056 47.7866 10.7194 47.6755 10.4583C47.57 10.1917 47.4283 9.97778 47.2505 9.81667C47.0783 9.65556 46.8672 9.575 46.6172 9.575C46.3672 9.575 46.1533 9.65556 45.9755 9.81667C45.8033 9.97778 45.6616 10.1917 45.5505 10.4583C45.445 10.7194 45.3672 11.0056 45.3172 11.3167C45.2672 11.6278 45.2422 11.9389 45.2422 12.25C45.2422 12.5556 45.2672 12.8667 45.3172 13.1833C45.3672 13.4944 45.445 13.7833 45.5505 14.05C45.6616 14.3111 45.8033 14.5222 45.9755 14.6833C46.1533 14.8444 46.3672 14.925 46.6172 14.925Z" fill="#959BA1"/>
<path d="M39.7417 75.8167C39.2583 75.8167 38.8139 75.7111 38.4083 75.5C38.0083 75.2889 37.6889 75.0055 37.45 74.65L38.1583 73.2667C38.2361 73.6333 38.4194 73.9472 38.7083 74.2083C38.9972 74.4639 39.3361 74.5917 39.725 74.5917C39.9917 74.5917 40.2333 74.5305 40.45 74.4083C40.6667 74.2805 40.8389 74.1111 40.9667 73.9C41.1 73.6833 41.1667 73.4389 41.1667 73.1667C41.1667 72.8889 41.0972 72.6472 40.9583 72.4417C40.825 72.2305 40.6444 72.0667 40.4167 71.95C40.1944 71.8278 39.9472 71.7667 39.675 71.7667C39.4194 71.7667 39.1778 71.8222 38.95 71.9333C38.7278 72.0389 38.5361 72.1833 38.375 72.3667V68.1667H41.9167V69.35H39.475V70.7083C39.5528 70.6861 39.6278 70.6722 39.7 70.6667C39.7778 70.6555 39.8583 70.65 39.9417 70.65C40.3861 70.65 40.7972 70.7583 41.175 70.975C41.5583 71.1917 41.8667 71.4917 42.1 71.875C42.3333 72.2583 42.45 72.6944 42.45 73.1833C42.45 73.6778 42.325 74.125 42.075 74.525C41.8306 74.9194 41.5028 75.2333 41.0917 75.4667C40.6861 75.7 40.2361 75.8167 39.7417 75.8167ZM46.3711 75.8167C45.8989 75.8167 45.4905 75.7055 45.1461 75.4833C44.8072 75.2555 44.5239 74.9528 44.2961 74.575C44.0739 74.1972 43.9072 73.7778 43.7961 73.3167C43.6905 72.8555 43.6378 72.3889 43.6378 71.9167C43.6378 71.4444 43.6905 70.9778 43.7961 70.5167C43.9072 70.0555 44.0739 69.6361 44.2961 69.2583C44.5239 68.8805 44.8072 68.5805 45.1461 68.3583C45.4905 68.1305 45.8989 68.0167 46.3711 68.0167C46.8433 68.0167 47.2489 68.1305 47.5878 68.3583C47.9322 68.5805 48.2155 68.8805 48.4378 69.2583C48.6655 69.6361 48.8322 70.0555 48.9378 70.5167C49.0489 70.9778 49.1044 71.4444 49.1044 71.9167C49.1044 72.3889 49.0489 72.8555 48.9378 73.3167C48.8322 73.7778 48.6655 74.1972 48.4378 74.575C48.2155 74.9528 47.9322 75.2555 47.5878 75.4833C47.2489 75.7055 46.8433 75.8167 46.3711 75.8167ZM46.3711 74.5917C46.6211 74.5917 46.8322 74.5111 47.0044 74.35C47.1822 74.1889 47.3239 73.9778 47.4294 73.7167C47.5405 73.45 47.6211 73.1611 47.6711 72.85C47.7211 72.5333 47.7461 72.2222 47.7461 71.9167C47.7461 71.6055 47.7211 71.2944 47.6711 70.9833C47.6211 70.6722 47.5405 70.3861 47.4294 70.125C47.3239 69.8583 47.1822 69.6444 47.0044 69.4833C46.8322 69.3222 46.6211 69.2417 46.3711 69.2417C46.1211 69.2417 45.9072 69.3222 45.7294 69.4833C45.5572 69.6444 45.4155 69.8583 45.3044 70.125C45.1989 70.3861 45.1211 70.6722 45.0711 70.9833C45.0211 71.2944 44.9961 71.6055 44.9961 71.9167C44.9961 72.2222 45.0211 72.5333 45.0711 72.85C45.1211 73.1611 45.1989 73.45 45.3044 73.7167C45.4155 73.9778 45.5572 74.1889 45.7294 74.35C45.9072 74.5111 46.1211 74.5917 46.3711 74.5917Z" fill="#959BA1"/>
<path d="M37.7833 135.333L40.825 130.858C40.9583 130.658 41.0472 130.492 41.0917 130.358C41.1361 130.225 41.1583 130.103 41.1583 129.992C41.1583 129.692 41.05 129.436 40.8333 129.225C40.6222 129.014 40.3611 128.908 40.05 128.908C39.7389 128.908 39.4778 129.014 39.2667 129.225C39.0556 129.436 38.95 129.692 38.95 129.992C38.95 130.375 39.1139 130.706 39.4417 130.983H37.9333C37.7611 130.667 37.675 130.333 37.675 129.983C37.675 129.567 37.7806 129.186 37.9917 128.842C38.2028 128.492 38.4889 128.211 38.85 128C39.2111 127.789 39.6139 127.683 40.0583 127.683C40.4972 127.683 40.9 127.789 41.2667 128C41.6333 128.206 41.925 128.483 42.1417 128.833C42.3639 129.178 42.475 129.564 42.475 129.992C42.475 130.253 42.4278 130.503 42.3333 130.742C42.2389 130.981 42.0889 131.244 41.8833 131.533L40.075 134.108H42.575V135.333H37.7833ZM45.9878 135.483C45.5044 135.483 45.06 135.378 44.6544 135.167C44.2544 134.956 43.935 134.672 43.6961 134.317L44.4044 132.933C44.4822 133.3 44.6655 133.614 44.9544 133.875C45.2433 134.131 45.5822 134.258 45.9711 134.258C46.2378 134.258 46.4794 134.197 46.6961 134.075C46.9128 133.947 47.085 133.778 47.2128 133.567C47.3461 133.35 47.4128 133.106 47.4128 132.833C47.4128 132.556 47.3433 132.314 47.2044 132.108C47.0711 131.897 46.8905 131.733 46.6628 131.617C46.4405 131.494 46.1933 131.433 45.9211 131.433C45.6655 131.433 45.4239 131.489 45.1961 131.6C44.9739 131.706 44.7822 131.85 44.6211 132.033V127.833H48.1628V129.017H45.7211V130.375C45.7989 130.353 45.8739 130.339 45.9461 130.333C46.0239 130.322 46.1044 130.317 46.1878 130.317C46.6322 130.317 47.0433 130.425 47.4211 130.642C47.8044 130.858 48.1128 131.158 48.3461 131.542C48.5794 131.925 48.6961 132.361 48.6961 132.85C48.6961 133.344 48.5711 133.792 48.3211 134.192C48.0766 134.586 47.7489 134.9 47.3378 135.133C46.9322 135.367 46.4822 135.483 45.9878 135.483Z" fill="#959BA1"/>
<path d="M46.125 195.15C45.6528 195.15 45.2444 195.039 44.9 194.817C44.5611 194.589 44.2778 194.286 44.05 193.908C43.8278 193.531 43.6611 193.111 43.55 192.65C43.4444 192.189 43.3917 191.722 43.3917 191.25C43.3917 190.778 43.4444 190.311 43.55 189.85C43.6611 189.389 43.8278 188.969 44.05 188.592C44.2778 188.214 44.5611 187.914 44.9 187.692C45.2444 187.464 45.6528 187.35 46.125 187.35C46.5972 187.35 47.0028 187.464 47.3417 187.692C47.6861 187.914 47.9694 188.214 48.1917 188.592C48.4194 188.969 48.5861 189.389 48.6917 189.85C48.8028 190.311 48.8583 190.778 48.8583 191.25C48.8583 191.722 48.8028 192.189 48.6917 192.65C48.5861 193.111 48.4194 193.531 48.1917 193.908C47.9694 194.286 47.6861 194.589 47.3417 194.817C47.0028 195.039 46.5972 195.15 46.125 195.15ZM46.125 193.925C46.375 193.925 46.5861 193.844 46.7583 193.683C46.9361 193.522 47.0778 193.311 47.1833 193.05C47.2944 192.783 47.375 192.494 47.425 192.183C47.475 191.867 47.5 191.556 47.5 191.25C47.5 190.939 47.475 190.628 47.425 190.317C47.375 190.006 47.2944 189.719 47.1833 189.458C47.0778 189.192 46.9361 188.978 46.7583 188.817C46.5861 188.656 46.375 188.575 46.125 188.575C45.875 188.575 45.6611 188.656 45.4833 188.817C45.3111 188.978 45.1694 189.192 45.0583 189.458C44.9528 189.719 44.875 190.006 44.825 190.317C44.775 190.628 44.75 190.939 44.75 191.25C44.75 191.556 44.775 191.867 44.825 192.183C44.875 192.494 44.9528 192.783 45.0583 193.05C45.1694 193.311 45.3111 193.522 45.4833 193.683C45.6611 193.844 45.875 193.925 46.125 193.925Z" fill="#959BA1"/>
<mask id="path-5-inside-1_811_794" fill="white">
<path d="M58 0H153V200H58V0Z"/>
</mask>
<path d="M152 0V200H154V0H152ZM59 200V0H57V200H59Z" fill="#BAC2CA" mask="url(#path-5-inside-1_811_794)"/>
<g clip-path="url(#clip0_811_794)">
<path d="M96.1556 216V206H99.5222C100.344 206 101.085 206.137 101.744 206.411C102.404 206.678 102.967 207.044 103.433 207.511C103.907 207.97 104.267 208.504 104.511 209.111C104.763 209.711 104.889 210.341 104.889 211C104.889 211.659 104.763 212.293 104.511 212.9C104.267 213.5 103.907 214.033 103.433 214.5C102.967 214.959 102.404 215.326 101.744 215.6C101.085 215.867 100.344 216 99.5222 216H96.1556ZM97.9111 214.367H99.3556C99.9704 214.367 100.504 214.274 100.956 214.089C101.407 213.904 101.785 213.656 102.089 213.344C102.393 213.026 102.619 212.667 102.767 212.267C102.915 211.859 102.989 211.437 102.989 211C102.989 210.563 102.915 210.144 102.767 209.744C102.619 209.337 102.393 208.974 102.089 208.656C101.785 208.337 101.407 208.089 100.956 207.911C100.504 207.726 99.9704 207.633 99.3556 207.633H97.9111V214.367ZM106.333 216V209.333H108.078V216H106.333ZM107.211 208.311C106.937 208.311 106.704 208.219 106.511 208.033C106.326 207.841 106.233 207.607 106.233 207.333C106.233 207.052 106.326 206.819 106.511 206.633C106.704 206.448 106.937 206.356 107.211 206.356C107.493 206.356 107.726 206.448 107.911 206.633C108.096 206.819 108.189 207.052 108.189 207.333C108.189 207.607 108.096 207.841 107.911 208.033C107.726 208.219 107.493 208.311 107.211 208.311ZM112.94 216.2C112.28 216.2 111.677 216.041 111.128 215.722C110.588 215.404 110.158 214.978 109.84 214.444C109.521 213.904 109.362 213.311 109.362 212.667C109.362 212.015 109.521 211.422 109.84 210.889C110.158 210.356 110.588 209.93 111.128 209.611C111.677 209.293 112.28 209.133 112.94 209.133C113.406 209.133 113.847 209.211 114.262 209.367C114.677 209.522 115.043 209.748 115.362 210.044L114.895 211.889C114.71 211.57 114.454 211.296 114.128 211.067C113.803 210.83 113.425 210.711 112.995 210.711C112.625 210.711 112.291 210.8 111.995 210.978C111.706 211.156 111.477 211.393 111.306 211.689C111.136 211.978 111.051 212.304 111.051 212.667C111.051 213.022 111.136 213.348 111.306 213.644C111.477 213.941 111.706 214.178 111.995 214.356C112.291 214.533 112.625 214.622 112.995 214.622C113.425 214.622 113.803 214.507 114.128 214.278C114.454 214.041 114.71 213.763 114.895 213.444L115.362 215.289C115.043 215.585 114.677 215.811 114.262 215.967C113.847 216.122 113.406 216.2 112.94 216.2Z" fill="#959BA1"/>
</g>
<mask id="path-8-inside-2_811_794" fill="white">
<path d="M153 0H248V200H153V0Z"/>
</mask>
<path d="M247 0V200H249V0H247Z" fill="#BAC2CA" mask="url(#path-8-inside-2_811_794)"/>
<g clip-path="url(#clip1_811_794)">
<path d="M190.156 216V206H195.378V207.578H191.911V209.267H194.6V210.8H191.911V214.367H195.378V216H190.156ZM196.822 216V209.333H198.389V210.156C198.633 209.822 198.933 209.57 199.289 209.4C199.644 209.222 200.03 209.133 200.444 209.133C200.919 209.133 201.359 209.248 201.767 209.478C202.181 209.707 202.515 210.041 202.767 210.478C203.019 210.907 203.144 211.433 203.144 212.056V216H201.4V212.289C201.4 211.874 201.278 211.507 201.033 211.189C200.789 210.87 200.441 210.711 199.989 210.711C199.619 210.711 199.289 210.841 199 211.1C198.711 211.352 198.567 211.737 198.567 212.256V216H196.822ZM208.028 216.2C207.295 216.2 206.643 216.044 206.073 215.733C205.51 215.422 205.069 214.996 204.75 214.456C204.439 213.907 204.284 213.289 204.284 212.6C204.284 211.941 204.436 211.352 204.739 210.833C205.05 210.307 205.469 209.893 205.995 209.589C206.521 209.285 207.102 209.133 207.739 209.133C208.391 209.133 208.973 209.285 209.484 209.589C210.002 209.885 210.413 210.289 210.717 210.8C211.021 211.311 211.173 211.893 211.173 212.544V213.178H207.028C206.843 213.178 206.661 213.167 206.484 213.144C206.306 213.122 206.128 213.096 205.95 213.067C206.039 213.548 206.273 213.944 206.65 214.256C207.028 214.567 207.502 214.722 208.073 214.722C208.495 214.722 208.876 214.633 209.217 214.456C209.558 214.278 209.839 214.056 210.061 213.789L210.461 215.422C210.128 215.681 209.754 215.874 209.339 216C208.924 216.133 208.487 216.2 208.028 216.2ZM205.906 211.989C206.284 211.915 206.658 211.878 207.028 211.878H208.461C208.661 211.878 208.85 211.885 209.028 211.9C209.206 211.915 209.376 211.937 209.539 211.967C209.428 211.537 209.21 211.193 208.884 210.933C208.565 210.674 208.18 210.544 207.728 210.544C207.284 210.544 206.898 210.678 206.573 210.944C206.247 211.211 206.024 211.559 205.906 211.989Z" fill="#959BA1"/>
</g>
<mask id="path-11-inside-3_811_794" fill="white">
<path d="M248 0H343V200H248V0Z"/>
</mask>
<path d="M342 0V200H344V0H342Z" fill="#BAC2CA" mask="url(#path-11-inside-3_811_794)"/>
<g clip-path="url(#clip2_811_794)">
<path d="M285.156 216V206H290.378V207.533H286.911V209.267H290.044V210.8H286.911V216H285.156ZM294.309 216.2C293.576 216.2 292.924 216.044 292.354 215.733C291.791 215.422 291.35 214.996 291.032 214.456C290.72 213.907 290.565 213.289 290.565 212.6C290.565 211.941 290.717 211.352 291.02 210.833C291.332 210.307 291.75 209.893 292.276 209.589C292.802 209.285 293.383 209.133 294.02 209.133C294.672 209.133 295.254 209.285 295.765 209.589C296.283 209.885 296.695 210.289 296.998 210.8C297.302 211.311 297.454 211.893 297.454 212.544V213.178H293.309C293.124 213.178 292.943 213.167 292.765 213.144C292.587 213.122 292.409 213.096 292.232 213.067C292.32 213.548 292.554 213.944 292.932 214.256C293.309 214.567 293.783 214.722 294.354 214.722C294.776 214.722 295.158 214.633 295.498 214.456C295.839 214.278 296.12 214.056 296.343 213.789L296.743 215.422C296.409 215.681 296.035 215.874 295.62 216C295.206 216.133 294.769 216.2 294.309 216.2ZM292.187 211.989C292.565 211.915 292.939 211.878 293.309 211.878H294.743C294.943 211.878 295.132 211.885 295.309 211.9C295.487 211.915 295.658 211.937 295.82 211.967C295.709 211.537 295.491 211.193 295.165 210.933C294.846 210.674 294.461 210.544 294.009 210.544C293.565 210.544 293.18 210.678 292.854 210.944C292.528 211.211 292.306 211.559 292.187 211.989ZM302.317 216.156C301.887 216.156 301.487 216.078 301.117 215.922C300.754 215.767 300.439 215.556 300.173 215.289V216H298.65V205.333H300.395V209.844C300.654 209.637 300.943 209.474 301.261 209.356C301.587 209.237 301.939 209.178 302.317 209.178C302.939 209.178 303.502 209.337 304.006 209.656C304.51 209.967 304.91 210.385 305.206 210.911C305.51 211.437 305.661 212.022 305.661 212.667C305.661 213.304 305.51 213.889 305.206 214.422C304.91 214.948 304.51 215.37 304.006 215.689C303.502 216 302.939 216.156 302.317 216.156ZM302.106 214.611C302.461 214.611 302.78 214.522 303.061 214.344C303.35 214.167 303.58 213.933 303.75 213.644C303.921 213.348 304.006 213.022 304.006 212.667C304.006 212.311 303.921 211.989 303.75 211.7C303.58 211.404 303.35 211.167 303.061 210.989C302.78 210.811 302.465 210.722 302.117 210.722C301.761 210.722 301.439 210.811 301.15 210.989C300.869 211.167 300.643 211.404 300.473 211.7C300.302 211.989 300.217 212.311 300.217 212.667C300.217 213.022 300.302 213.348 300.473 213.644C300.643 213.933 300.869 214.167 301.15 214.344C301.439 214.522 301.758 214.611 302.106 214.611Z" fill="#959BA1"/>
</g>
<mask id="path-14-inside-4_811_794" fill="white">
<path d="M343 0H438V200H343V0Z"/>
</mask>
<path d="M437 0V200H439V0H437Z" fill="#BAC2CA" mask="url(#path-14-inside-4_811_794)"/>
<g clip-path="url(#clip3_811_794)">
<path d="M378.656 216V205.667L383.378 211.7L388.022 205.667V216H386.256V212.689C386.256 212.37 386.259 212.015 386.267 211.622C386.274 211.222 386.307 210.77 386.367 210.267C386.137 210.652 385.915 210.989 385.7 211.278C385.485 211.567 385.289 211.833 385.111 212.078L383.344 214.489L381.511 212.078C381.333 211.848 381.13 211.578 380.9 211.267C380.678 210.948 380.456 210.604 380.233 210.233C380.293 210.759 380.326 211.219 380.333 211.611C380.341 212.004 380.344 212.363 380.344 212.689V216H378.656ZM392.95 216.156C392.342 216.156 391.787 216 391.283 215.689C390.779 215.37 390.376 214.948 390.072 214.422C389.776 213.889 389.627 213.304 389.627 212.667C389.627 212.03 389.776 211.448 390.072 210.922C390.376 210.389 390.779 209.967 391.283 209.656C391.787 209.337 392.342 209.178 392.95 209.178C393.387 209.178 393.79 209.256 394.161 209.411C394.531 209.567 394.846 209.785 395.105 210.067V209.333H396.627V216H395.105V215.267C394.846 215.541 394.531 215.759 394.161 215.922C393.79 216.078 393.387 216.156 392.95 216.156ZM393.161 214.611C393.516 214.611 393.835 214.522 394.116 214.344C394.405 214.167 394.635 213.933 394.805 213.644C394.976 213.348 395.061 213.022 395.061 212.667C395.061 212.311 394.976 211.989 394.805 211.7C394.635 211.404 394.405 211.167 394.116 210.989C393.835 210.811 393.52 210.722 393.172 210.722C392.816 210.722 392.494 210.811 392.205 210.989C391.924 211.167 391.698 211.404 391.527 211.7C391.357 211.989 391.272 212.311 391.272 212.667C391.272 213.022 391.357 213.348 391.527 213.644C391.698 213.933 391.924 214.167 392.205 214.344C392.494 214.522 392.813 214.611 393.161 214.611ZM398.275 216V209.333H399.842V210.5C400.079 210.115 400.375 209.815 400.731 209.6C401.094 209.378 401.523 209.267 402.02 209.267L402.409 210.844C402.268 210.8 402.109 210.778 401.931 210.778C401.353 210.778 400.89 210.963 400.542 211.333C400.194 211.704 400.02 212.23 400.02 212.911V216H398.275Z" fill="#959BA1"/>
</g>
<mask id="path-17-inside-5_811_794" fill="white">
<path d="M438 0H533V200H438V0Z"/>
</mask>
<path d="M532 0V200H534V0H532Z" fill="#BAC2CA" mask="url(#path-17-inside-5_811_794)"/>
<g clip-path="url(#clip4_811_794)">
<path d="M474.156 216L478.511 205.656H478.533L482.9 216H481.067L480.211 213.922H476.778L475.922 216H474.156ZM477.389 212.456H479.6L479.078 211.2C478.967 210.933 478.863 210.674 478.767 210.422C478.67 210.163 478.578 209.863 478.489 209.522C478.4 209.863 478.307 210.159 478.211 210.411C478.122 210.663 478.022 210.926 477.911 211.2L477.389 212.456ZM487.551 216.156C487.122 216.156 486.722 216.078 486.351 215.922C485.988 215.767 485.674 215.556 485.407 215.289V216H483.885V205.333H485.629V209.844C485.888 209.637 486.177 209.474 486.496 209.356C486.822 209.237 487.174 209.178 487.551 209.178C488.174 209.178 488.737 209.337 489.24 209.656C489.744 209.967 490.144 210.385 490.44 210.911C490.744 211.437 490.896 212.022 490.896 212.667C490.896 213.304 490.744 213.889 490.44 214.422C490.144 214.948 489.744 215.37 489.24 215.689C488.737 216 488.174 216.156 487.551 216.156ZM487.34 214.611C487.696 214.611 488.014 214.522 488.296 214.344C488.585 214.167 488.814 213.933 488.985 213.644C489.155 213.348 489.24 213.022 489.24 212.667C489.24 212.311 489.155 211.989 488.985 211.7C488.814 211.404 488.585 211.167 488.296 210.989C488.014 210.811 487.7 210.722 487.351 210.722C486.996 210.722 486.674 210.811 486.385 210.989C486.103 211.167 485.877 211.404 485.707 211.7C485.537 211.989 485.451 212.311 485.451 212.667C485.451 213.022 485.537 213.348 485.707 213.644C485.877 213.933 486.103 214.167 486.385 214.344C486.674 214.522 486.992 214.611 487.34 214.611ZM492.166 216V209.333H493.733V210.5C493.97 210.115 494.266 209.815 494.622 209.6C494.984 209.378 495.414 209.267 495.91 209.267L496.299 210.844C496.159 210.8 495.999 210.778 495.822 210.778C495.244 210.778 494.781 210.963 494.433 211.333C494.084 211.704 493.91 212.23 493.91 212.911V216H492.166Z" fill="#959BA1"/>
</g>
<mask id="path-20-inside-6_811_794" fill="white">
<path d="M533 0H628V200H533V0Z"/>
</mask>
<path d="M627 0V200H629V0H627Z" fill="#BAC2CA" mask="url(#path-20-inside-6_811_794)"/>
<g clip-path="url(#clip5_811_794)">
<path d="M567.656 216V205.667L572.378 211.7L577.022 205.667V216H575.256V212.689C575.256 212.37 575.259 212.015 575.267 211.622C575.274 211.222 575.307 210.77 575.367 210.267C575.137 210.652 574.915 210.989 574.7 211.278C574.485 211.567 574.289 211.833 574.111 212.078L572.344 214.489L570.511 212.078C570.333 211.848 570.13 211.578 569.9 211.267C569.678 210.948 569.456 210.604 569.233 210.233C569.293 210.759 569.326 211.219 569.333 211.611C569.341 212.004 569.344 212.363 569.344 212.689V216H567.656ZM581.95 216.156C581.342 216.156 580.787 216 580.283 215.689C579.779 215.37 579.376 214.948 579.072 214.422C578.776 213.889 578.627 213.304 578.627 212.667C578.627 212.03 578.776 211.448 579.072 210.922C579.376 210.389 579.779 209.967 580.283 209.656C580.787 209.337 581.342 209.178 581.95 209.178C582.387 209.178 582.79 209.256 583.161 209.411C583.531 209.567 583.846 209.785 584.105 210.067V209.333H585.627V216H584.105V215.267C583.846 215.541 583.531 215.759 583.161 215.922C582.79 216.078 582.387 216.156 581.95 216.156ZM582.161 214.611C582.516 214.611 582.835 214.522 583.116 214.344C583.405 214.167 583.635 213.933 583.805 213.644C583.976 213.348 584.061 213.022 584.061 212.667C584.061 212.311 583.976 211.989 583.805 211.7C583.635 211.404 583.405 211.167 583.116 210.989C582.835 210.811 582.52 210.722 582.172 210.722C581.816 210.722 581.494 210.811 581.205 210.989C580.924 211.167 580.698 211.404 580.527 211.7C580.357 211.989 580.272 212.311 580.272 212.667C580.272 213.022 580.357 213.348 580.527 213.644C580.698 213.933 580.924 214.167 581.205 214.344C581.494 214.522 581.813 214.611 582.161 214.611ZM587.075 219.333L589.286 214.911L586.542 209.333H588.475L589.709 211.889C589.82 212.119 589.92 212.333 590.009 212.533C590.098 212.733 590.175 212.941 590.242 213.156C590.316 212.941 590.398 212.733 590.486 212.533C590.583 212.333 590.69 212.119 590.809 211.889L592.064 209.333H593.92L588.953 219.333H587.075Z" fill="#959BA1"/>
</g>
<mask id="path-23-inside-7_811_794" fill="white">
<path d="M628 0H723V200H628V0Z"/>
</mask>
<path d="M722 0V200H724V0H722Z" fill="#BAC2CA" mask="url(#path-23-inside-7_811_794)"/>
<g clip-path="url(#clip6_811_794)">
<path d="M666.678 216.2C666.3 216.2 665.926 216.141 665.556 216.022C665.193 215.904 664.885 215.719 664.633 215.467L665.111 213.733C665.267 213.97 665.463 214.163 665.7 214.311C665.944 214.452 666.219 214.522 666.522 214.522C666.878 214.522 667.178 214.404 667.422 214.167C667.674 213.922 667.8 213.511 667.8 212.933V206H669.667V213.067C669.667 213.785 669.526 214.378 669.244 214.844C668.963 215.304 668.593 215.644 668.133 215.867C667.681 216.089 667.196 216.2 666.678 216.2ZM674.061 216.2C673.594 216.2 673.153 216.085 672.739 215.856C672.324 215.626 671.99 215.296 671.739 214.867C671.487 214.43 671.361 213.9 671.361 213.278V209.333H673.105V213.044C673.105 213.459 673.227 213.826 673.472 214.144C673.724 214.463 674.072 214.622 674.516 214.622C674.887 214.622 675.216 214.489 675.505 214.222C675.794 213.956 675.939 213.574 675.939 213.078V209.333H677.683V216H676.094V215.2C675.857 215.526 675.561 215.774 675.205 215.944C674.85 216.115 674.468 216.2 674.061 216.2ZM679.322 216V209.333H680.889V210.156C681.133 209.822 681.433 209.57 681.789 209.4C682.144 209.222 682.53 209.133 682.944 209.133C683.419 209.133 683.859 209.248 684.267 209.478C684.681 209.707 685.015 210.041 685.267 210.478C685.519 210.907 685.644 211.433 685.644 212.056V216H683.9V212.289C683.9 211.874 683.778 211.507 683.533 211.189C683.289 210.87 682.941 210.711 682.489 210.711C682.119 210.711 681.789 210.841 681.5 211.1C681.211 211.352 681.067 211.737 681.067 212.256V216H679.322Z" fill="#959BA1"/>
</g>
<defs>
<clipPath id="clip0_811_794">
<rect width="95" height="23" fill="white" transform="translate(58 200)"/>
</clipPath>
<clipPath id="clip1_811_794">
<rect width="95" height="23" fill="white" transform="translate(153 200)"/>
</clipPath>
<clipPath id="clip2_811_794">
<rect width="95" height="23" fill="white" transform="translate(248 200)"/>
</clipPath>
<clipPath id="clip3_811_794">
<rect width="95" height="23" fill="white" transform="translate(343 200)"/>
</clipPath>
<clipPath id="clip4_811_794">
<rect width="95" height="23" fill="white" transform="translate(438 200)"/>
</clipPath>
<clipPath id="clip5_811_794">
<rect width="95" height="23" fill="white" transform="translate(533 200)"/>
</clipPath>
<clipPath id="clip6_811_794">
<rect width="95" height="23" fill="white" transform="translate(628 200)"/>
</clipPath>
</defs>
</svg>
