<svg width="29" height="32" viewBox="0 0 29 32" fill="none" xmlns="http://www.w3.org/2000/svg">
<path d="M6.53448 32C4.86782 32 3.4454 31.4533 2.26724 30.36C1.08908 29.2667 0.5 27.9467 0.5 26.4V5.6C0.5 4.05333 1.08908 2.73333 2.26724 1.64C3.4454 0.546667 4.86782 0 6.53448 0H28.0862V24C27.3678 24 26.7572 24.2333 26.2543 24.7C25.7514 25.1667 25.5 25.7333 25.5 26.4C25.5 27.0667 25.7514 27.6333 26.2543 28.1C26.7572 28.5667 27.3678 28.8 28.0862 28.8V32H6.53448ZM3.94828 21.32C4.35057 21.1333 4.76724 21 5.19828 20.92C5.62931 20.84 6.07471 20.8 6.53448 20.8H7.39655V3.2H6.53448C5.81609 3.2 5.20546 3.43333 4.70259 3.9C4.19971 4.36667 3.94828 4.93333 3.94828 5.6V21.32ZM10.8448 20.8H24.6379V3.2H10.8448V20.8ZM6.53448 28.8H22.6121C22.4397 28.4267 22.3032 28.0467 22.2026 27.66C22.102 27.2733 22.0517 26.8533 22.0517 26.4C22.0517 25.9733 22.0948 25.56 22.181 25.16C22.2672 24.76 22.4109 24.3733 22.6121 24H6.53448C5.78736 24 5.16954 24.2333 4.68103 24.7C4.19253 25.1667 3.94828 25.7333 3.94828 26.4C3.94828 27.0933 4.19253 27.6667 4.68103 28.12C5.16954 28.5733 5.78736 28.8 6.53448 28.8Z" fill="#F2AB6D" fill-opacity="0.8"/>
</svg>
