<svg width="17" height="16" viewBox="0 0 17 16" fill="none" xmlns="http://www.w3.org/2000/svg">
<path d="M1.68182 15.9886C1.21932 15.9886 0.82339 15.824 0.494034 15.4946C0.164678 15.1653 0 14.7693 0 14.3068V5.05683C0 4.59433 0.164678 4.19841 0.494034 3.86905C0.82339 3.53969 1.21932 3.37502 1.68182 3.37502H5.04545V1.6932C5.04545 1.2307 5.21013 0.834773 5.53948 0.505417C5.86884 0.176061 6.26477 0.0113831 6.72727 0.0113831H10.0909C10.5534 0.0113831 10.9493 0.176061 11.2787 0.505417C11.608 0.834773 11.7727 1.2307 11.7727 1.6932V3.37502H15.1364C15.5989 3.37502 15.9948 3.53969 16.3241 3.86905C16.6535 4.19841 16.8182 4.59433 16.8182 5.05683V14.3068C16.8182 14.7693 16.6535 15.1653 16.3241 15.4946C15.9948 15.824 15.5989 15.9886 15.1364 15.9886H1.68182ZM1.68182 14.3068H15.1364V5.05683H1.68182V14.3068ZM6.72727 3.37502H10.0909V1.6932H6.72727V3.37502Z" fill="#232B59"/>
</svg>
