<svg width="29" height="32" viewBox="0 0 29 32" fill="none" xmlns="http://www.w3.org/2000/svg">
<path d="M12.7537 32C11.9906 32 11.2753 31.8476 10.6076 31.5429C9.93996 31.2381 9.37449 30.8063 8.91122 30.2476L0 19.6952L0.776666 18.9333C1.32169 18.4 1.97573 18.0825 2.73877 17.981C3.50181 17.8794 4.21035 18.019 4.86438 18.4L7.88929 20.1143V7.61905C7.88929 7.1873 8.04599 6.8254 8.35938 6.53333C8.67277 6.24127 9.0611 6.09524 9.52438 6.09524C9.98765 6.09524 10.3828 6.24127 10.7098 6.53333C11.0368 6.8254 11.2003 7.1873 11.2003 7.61905V25.6L7.23526 23.3143L11.4865 28.381C11.65 28.5587 11.8407 28.6984 12.0588 28.8C12.2768 28.9016 12.5084 28.9524 12.7537 28.9524H21.7875C22.6868 28.9524 23.4567 28.654 24.0971 28.0571C24.7375 27.4603 25.0577 26.7429 25.0577 25.9048V19.8095C25.0577 19.3778 24.901 19.0159 24.5876 18.7238C24.2742 18.4317 23.8859 18.2857 23.4226 18.2857H14.4705V15.2381H23.4226C24.7852 15.2381 25.9434 15.6825 26.8972 16.5714C27.851 17.4603 28.3279 18.5397 28.3279 19.8095V25.9048C28.3279 27.5809 27.6875 29.0159 26.4066 30.2095C25.1258 31.4032 23.5861 32 21.7875 32H12.7537ZM2.45263 11.4286C2.09836 10.8698 1.82585 10.2667 1.63509 9.61905C1.44433 8.97143 1.34895 8.30476 1.34895 7.61905C1.34895 5.51111 2.14605 3.71429 3.74026 2.22857C5.33447 0.742857 7.26251 0 9.52438 0C11.7862 0 13.7143 0.742857 15.3085 2.22857C16.9027 3.71429 17.6998 5.51111 17.6998 7.61905C17.6998 8.30476 17.6044 8.97143 17.4137 9.61905C17.2229 10.2667 16.9504 10.8698 16.5961 11.4286L13.7756 9.90476C13.9936 9.54921 14.1571 9.1873 14.2661 8.81905C14.3751 8.45079 14.4296 8.05079 14.4296 7.61905C14.4296 6.34921 13.9527 5.26984 12.9989 4.38095C12.0451 3.49206 10.8869 3.04762 9.52438 3.04762C8.16181 3.04762 7.00362 3.49206 6.04982 4.38095C5.09602 5.26984 4.61912 6.34921 4.61912 7.61905C4.61912 8.05079 4.67362 8.45079 4.78263 8.81905C4.89163 9.1873 5.05514 9.54921 5.27315 9.90476L2.45263 11.4286Z" fill="#F65A5A" fill-opacity="0.8"/>
</svg>
