<svg width="33" height="22" viewBox="0 0 33 22" fill="none" xmlns="http://www.w3.org/2000/svg">
<path d="M8.5 21.6208C6.29394 21.6208 4.40909 20.9113 2.84545 19.4925C1.28182 18.0736 0.5 16.3394 0.5 14.29C0.5 12.5333 1.0697 10.968 2.20909 9.59421C3.34848 8.22039 4.83939 7.34205 6.68182 6.95918C7.28788 4.88719 8.5 3.20933 10.3182 1.9256C12.1364 0.641866 14.197 0 16.5 0C19.3364 0 21.7424 0.917756 23.7182 2.75327C25.6939 4.58878 26.6818 6.82405 26.6818 9.45908C28.3545 9.63925 29.7424 10.3093 30.8455 11.4691C31.9485 12.629 32.5 13.9859 32.5 15.5399C32.5 17.229 31.8636 18.6648 30.5909 19.8472C29.3182 21.0296 27.7727 21.6208 25.9545 21.6208H17.9545C17.1545 21.6208 16.4697 21.3561 15.9 20.8269C15.3303 20.2976 15.0455 19.6614 15.0455 18.9182V11.959L12.7182 14.0535L10.6818 12.1617L16.5 6.75649L22.3182 12.1617L20.2818 14.0535L17.9545 11.959V18.9182H25.9545C26.9727 18.9182 27.8333 18.5916 28.5364 17.9385C29.2394 17.2853 29.5909 16.4858 29.5909 15.5399C29.5909 14.594 29.2394 13.7945 28.5364 13.1414C27.8333 12.4882 26.9727 12.1617 25.9545 12.1617H23.7727V9.45908C23.7727 7.58979 23.0636 5.99638 21.6455 4.67887C20.2273 3.36135 18.5121 2.70259 16.5 2.70259C14.4879 2.70259 12.7727 3.36135 11.3545 4.67887C9.93636 5.99638 9.22727 7.58979 9.22727 9.45908H8.5C7.09394 9.45908 5.89394 9.92077 4.9 10.8442C3.90606 11.7675 3.40909 12.8824 3.40909 14.1886C3.40909 15.4949 3.90606 16.6097 4.9 17.5331C5.89394 18.4565 7.09394 18.9182 8.5 18.9182H12.1364V21.6208H8.5Z" fill="#04B2D9"/>
</svg>
