<svg width="35" height="36" viewBox="0 0 35 36" fill="none" xmlns="http://www.w3.org/2000/svg">
<path d="M31.7996 15.1439H30.625V15.0833H17.5V20.9167H25.7417C24.5393 24.3124 21.3084 26.75 17.5 26.75C12.6678 26.75 8.74996 22.8322 8.74996 18C8.74996 13.1678 12.6678 9.25 17.5 9.25C19.7305 9.25 21.7598 10.0915 23.3049 11.4659L27.4298 7.34104C24.8252 4.91364 21.3412 3.41666 17.5 3.41666C9.44631 3.41666 2.91663 9.94635 2.91663 18C2.91663 26.0536 9.44631 32.5833 17.5 32.5833C25.5536 32.5833 32.0833 26.0536 32.0833 18C32.0833 17.0222 31.9827 16.0677 31.7996 15.1439Z" fill="#FFC107"/>
<path d="M4.59814 11.2122L9.3895 14.726C10.686 11.5162 13.8257 9.25 17.5 9.25C19.7305 9.25 21.7598 10.0915 23.3049 11.4659L27.4298 7.34104C24.8252 4.91364 21.3413 3.41666 17.5 3.41666C11.8986 3.41666 7.04085 6.57906 4.59814 11.2122Z" fill="#FF3D00"/>
<path d="M17.5 32.5833C21.2669 32.5833 24.6896 31.1418 27.2774 28.7975L22.7639 24.9781C21.2997 26.0872 19.4797 26.75 17.5 26.75C13.7069 26.75 10.4862 24.3314 9.27284 20.956L4.51721 24.6201C6.93075 29.3429 11.8322 32.5833 17.5 32.5833Z" fill="#4CAF50"/>
<path d="M31.7997 15.1439H30.625V15.0833H17.5V20.9167H25.7418C25.1643 22.5478 24.115 23.9544 22.7617 24.9789L22.7639 24.9774L27.2774 28.7968C26.958 29.087 32.0833 25.2917 32.0833 18C32.0833 17.0222 31.9827 16.0677 31.7997 15.1439Z" fill="#1976D2"/>
</svg>
