<svg width="29" height="16" viewBox="0 0 29 16" fill="none" xmlns="http://www.w3.org/2000/svg">
<path d="M0 15.1066V13.2411C0 12.3923 0.434287 11.7013 1.30286 11.1684C2.17143 10.6354 3.31637 10.3689 4.73768 10.3689C4.9943 10.3689 5.24105 10.3738 5.47794 10.3837C5.71482 10.3936 5.94184 10.4182 6.15898 10.4577C5.88262 10.8723 5.67534 11.3065 5.53716 11.7606C5.39898 12.2146 5.32989 12.6884 5.32989 13.1819V15.1066H0ZM7.10651 15.1066V13.1819C7.10651 12.5502 7.27924 11.9728 7.6247 11.4497C7.97015 10.9265 8.45873 10.4676 9.09042 10.0728C9.72211 9.67797 10.4772 9.38186 11.3556 9.18446C12.2341 8.98705 13.1865 8.88835 14.213 8.88835C15.2593 8.88835 16.2216 8.98705 17.1 9.18446C17.9785 9.38186 18.7336 9.67797 19.3653 10.0728C19.9969 10.4676 20.4806 10.9265 20.8162 11.4497C21.1518 11.9728 21.3195 12.5502 21.3195 13.1819V15.1066H7.10651ZM23.0962 15.1066V13.1819C23.0962 12.6686 23.032 12.185 22.9037 11.731C22.7754 11.2769 22.5829 10.8525 22.3263 10.4577C22.5434 10.4182 22.7655 10.3936 22.9925 10.3837C23.2195 10.3738 23.4515 10.3689 23.6884 10.3689C25.1097 10.3689 26.2546 10.6304 27.1232 11.1536C27.9918 11.6767 28.4261 12.3725 28.4261 13.2411V15.1066H23.0962ZM9.6234 12.7377H18.8323C18.6349 12.3429 18.0871 11.9975 17.1889 11.7013C16.2907 11.4052 15.2987 11.2572 14.213 11.2572C13.1273 11.2572 12.1354 11.4052 11.2372 11.7013C10.339 11.9975 9.80107 12.3429 9.6234 12.7377ZM4.73768 9.18446C4.08625 9.18446 3.52858 8.95251 3.06468 8.48861C2.60079 8.02471 2.36884 7.46705 2.36884 6.81562C2.36884 6.14445 2.60079 5.58185 3.06468 5.12782C3.52858 4.67379 4.08625 4.44678 4.73768 4.44678C5.40885 4.44678 5.97145 4.67379 6.42547 5.12782C6.8795 5.58185 7.10651 6.14445 7.10651 6.81562C7.10651 7.46705 6.8795 8.02471 6.42547 8.48861C5.97145 8.95251 5.40885 9.18446 4.73768 9.18446ZM23.6884 9.18446C23.037 9.18446 22.4793 8.95251 22.0154 8.48861C21.5515 8.02471 21.3195 7.46705 21.3195 6.81562C21.3195 6.14445 21.5515 5.58185 22.0154 5.12782C22.4793 4.67379 23.037 4.44678 23.6884 4.44678C24.3596 4.44678 24.9222 4.67379 25.3762 5.12782C25.8302 5.58185 26.0572 6.14445 26.0572 6.81562C26.0572 7.46705 25.8302 8.02471 25.3762 8.48861C24.9222 8.95251 24.3596 9.18446 23.6884 9.18446ZM14.213 8.00004C13.226 8.00004 12.387 7.65458 11.6961 6.96367C11.0052 6.27276 10.6598 5.4338 10.6598 4.44678C10.6598 3.44003 11.0052 2.59613 11.6961 1.91509C12.387 1.23404 13.226 0.893524 14.213 0.893524C15.2198 0.893524 16.0637 1.23404 16.7447 1.91509C17.4258 2.59613 17.7663 3.44003 17.7663 4.44678C17.7663 5.4338 17.4258 6.27276 16.7447 6.96367C16.0637 7.65458 15.2198 8.00004 14.213 8.00004ZM14.213 5.6312C14.5486 5.6312 14.8299 5.51769 15.0569 5.29068C15.2839 5.06367 15.3974 4.78237 15.3974 4.44678C15.3974 4.1112 15.2839 3.8299 15.0569 3.60288C14.8299 3.37587 14.5486 3.26236 14.213 3.26236C13.8774 3.26236 13.5961 3.37587 13.3691 3.60288C13.1421 3.8299 13.0286 4.1112 13.0286 4.44678C13.0286 4.78237 13.1421 5.06367 13.3691 5.29068C13.5961 5.51769 13.8774 5.6312 14.213 5.6312Z" fill="#232B59"/>
</svg>
