<svg width="680" height="95" viewBox="0 0 680 95" fill="none" xmlns="http://www.w3.org/2000/svg">
<path d="M32 73.4667L14.6909 62.9252V46.2807L4.79999 40.1778L32 23.5333L59.2 40.1778V62.3704H54.2545V43.2293L49.3091 46.2807V62.9252L32 73.4667ZM32 50.4418L48.9382 40.1778L32 29.9137L15.0618 40.1778L32 50.4418ZM32 67.1556L44.3636 59.6656V49.1935L32 56.8222L19.6364 49.1935V59.6656L32 67.1556Z" fill="#003C81"/>
<path d="M183.067 57.5232L192.453 45.9935H184.093L189.96 28.4484H174.267V48.5H183.067V57.5232ZM177.2 73.5645V53.5129H168.4V23.4355H197.733L191.867 40.9806H203.6L177.2 73.5645Z" fill="#003C81"/>
<path d="M317.6 68.1167V63.7574H362.4V68.1167H317.6ZM323.709 61.5778C322.589 61.5778 321.63 61.151 320.833 60.2973C320.035 59.4436 319.636 58.4173 319.636 57.2185V33.2426C319.636 32.0438 320.035 31.0176 320.833 30.1639C321.63 29.3102 322.589 28.8834 323.709 28.8834H356.291C357.411 28.8834 358.37 29.3102 359.167 30.1639C359.965 31.0176 360.364 32.0438 360.364 33.2426V57.2185C360.364 58.4173 359.965 59.4436 359.167 60.2973C358.37 61.151 357.411 61.5778 356.291 61.5778H323.709ZM323.709 57.2185H356.291V33.2426H323.709V57.2185Z" fill="#003C81"/>
<path d="M494 71.7742C491.469 71.4251 488.956 70.659 486.46 69.4759C483.964 68.2928 481.737 66.5957 479.778 64.3847C477.819 62.1736 476.233 59.3807 475.02 56.0059C473.807 52.6312 473.2 48.5776 473.2 43.8452V41.5178H475.28C477.048 41.5178 478.868 41.7699 480.74 42.2742C482.612 42.7785 484.363 43.5349 485.992 44.5434C486.408 41.2074 487.353 37.7842 488.826 34.2737C490.299 30.7631 492.024 27.7472 494 25.2258C495.976 27.7472 497.701 30.7631 499.174 34.2737C500.647 37.7842 501.592 41.2074 502.008 44.5434C503.637 43.5349 505.388 42.7785 507.26 42.2742C509.132 41.7699 510.952 41.5178 512.72 41.5178H514.8V43.8452C514.8 48.5776 514.193 52.6312 512.98 56.0059C511.767 59.3807 510.181 62.1736 508.222 64.3847C506.263 66.5957 504.045 68.2928 501.566 69.4759C499.087 70.659 496.565 71.4251 494 71.7742ZM493.896 67.003C493.515 60.5638 491.807 55.6956 488.774 52.3984C485.741 49.1013 481.971 47.0648 477.464 46.289C477.845 52.9221 479.605 57.8679 482.742 61.1263C485.879 64.3847 489.597 66.3436 493.896 67.003ZM494 52.2239C494.52 51.3705 495.153 50.488 495.898 49.5765C496.643 48.6649 497.363 47.8794 498.056 47.2199C497.987 45.0089 497.597 42.7009 496.886 40.2959C496.175 37.8909 495.213 35.5441 494 33.2554C492.787 35.5441 491.825 37.8909 491.114 40.2959C490.403 42.7009 490.013 45.0089 489.944 47.2199C490.637 47.8794 491.365 48.6649 492.128 49.5765C492.891 50.488 493.515 51.3705 494 52.2239ZM498.056 65.9557C499.339 65.4902 500.673 64.8114 502.06 63.9192C503.447 63.027 504.738 61.8148 505.934 60.2826C507.13 58.7504 508.153 56.8399 509.002 54.5513C509.851 52.2627 510.363 49.5086 510.536 46.289C507.277 46.832 504.417 48.0442 501.956 49.9256C499.495 51.8069 497.605 54.2022 496.288 57.1115C496.704 58.3528 497.059 59.7104 497.354 61.1845C497.649 62.6585 497.883 64.2489 498.056 65.9557Z" fill="#003C81"/>
<path d="M625.6 73.4667V34.6296H635.556V23.5333H660.444V45.7259H670.4V73.4667H650.489V62.3704H645.511V73.4667H625.6ZM630.578 67.9185H635.556V62.3704H630.578V67.9185ZM630.578 56.8222H635.556V51.2741H630.578V56.8222ZM630.578 45.7259H635.556V40.1778H630.578V45.7259ZM640.533 56.8222H645.511V51.2741H640.533V56.8222ZM640.533 45.7259H645.511V40.1778H640.533V45.7259ZM640.533 34.6296H645.511V29.0815H640.533V34.6296ZM650.489 56.8222H655.467V51.2741H650.489V56.8222ZM650.489 45.7259H655.467V40.1778H650.489V45.7259ZM650.489 34.6296H655.467V29.0815H650.489V34.6296ZM660.444 67.9185H665.422V62.3704H660.444V67.9185ZM660.444 56.8222H665.422V51.2741H660.444V56.8222Z" fill="#003C81"/>
</svg>
