<svg width="19" height="21" viewBox="0 0 19 21" fill="none" xmlns="http://www.w3.org/2000/svg">
<path d="M4.12559 12.4266H11.0745V10.5H4.12559V12.4266ZM4.12559 9.53675H14.549V7.61018H4.12559V9.53675ZM4.12559 6.64689H14.549V4.72032H4.12559V6.64689ZM0.651123 20.1329V2.79376C0.651123 2.26395 0.821227 1.8104 1.16143 1.43312C1.50164 1.05583 1.91062 0.867188 2.38835 0.867188H16.2862C16.7639 0.867188 17.1729 1.05583 17.5131 1.43312C17.8533 1.8104 18.0234 2.26395 18.0234 2.79376V14.3532C18.0234 14.883 17.8533 15.3365 17.5131 15.7138C17.1729 16.0911 16.7639 16.2797 16.2862 16.2797H4.12559L0.651123 20.1329ZM3.38726 14.3532H16.2862V2.79376H2.38835V15.4369L3.38726 14.3532Z" fill="#232B59"/>
</svg>
