<svg width="15" height="20" viewBox="0 0 15 20" fill="none" xmlns="http://www.w3.org/2000/svg">
<path d="M6.29474 15.6373L11.412 10.3289L10.0988 8.96653L6.2721 12.9361L4.37009 10.9631L3.07944 12.3019L6.29474 15.6373ZM1.81144 19.3954C1.31329 19.3954 0.886849 19.2114 0.532109 18.8435C0.17737 18.4755 0 18.0331 0 17.5163V2.4837C0 1.96695 0.17737 1.52458 0.532109 1.15659C0.886849 0.788608 1.31329 0.604614 1.81144 0.604614H9.05718L14.4915 6.24186V17.5163C14.4915 18.0331 14.3141 18.4755 13.9594 18.8435C13.6046 19.2114 13.1782 19.3954 12.68 19.3954H1.81144ZM8.15146 7.1814V2.4837H1.81144V17.5163H12.68V7.1814H8.15146Z" fill="#232B59"/>
</svg>
